<svg width="15" height="25" viewBox="0 0 15 25" fill="none" xmlns="http://www.w3.org/2000/svg">
<path fill-rule="evenodd" clip-rule="evenodd" d="M15 18.114C15 22.1052 12.0087 25 7.25596 25C5.89044 24.959 4.54612 24.632 3.30069 24.0377C2.05527 23.4434 0.933425 22.5937 0 21.5377L1.58881 19.6716C3.07704 21.1758 4.82702 22.6377 7.22396 22.6377C9.88722 22.6377 12.7574 21.0524 12.7574 18.2036C12.7574 15.8377 10.988 14.2947 7.26854 13.0785C3.03018 11.7025 0.880134 9.83638 0.880134 6.32564C0.877848 2.8512 3.64398 0 7.58973 0C10.5353 0 12.379 1.33362 14.1724 3.03756L12.6099 4.88068C11.0371 3.40062 9.5386 2.39738 7.69946 2.39738C5.41797 2.39617 3.1662 3.95972 3.1662 6.20825C3.1662 8.2462 4.26808 9.54473 8.16124 10.8106C11.7275 11.9772 15 13.7852 15 18.1116V18.114Z" fill="#333333"/>
</svg>
